<svg width="91" height="17" fill="none" xmlns="http://www.w3.org/2000/svg"><path d="M9.002 0l2.126 6.494h6.877l-5.564 4.012L14.566 17l-5.564-4.013L3.438 17l2.126-6.494L0 6.494h6.878L9.002 0zM33.002 0l2.126 6.494h6.877l-5.564 4.012L38.566 17l-5.564-4.013L27.438 17l2.126-6.494L24 6.494h6.878L33.002 0zM58.002 0l2.126 6.494h6.877l-5.564 4.012L63.566 17l-5.564-4.013L52.438 17l2.126-6.494L49 6.494h6.878L58.002 0zM81.002 0l2.126 6.494h6.877l-5.564 4.012L86.566 17l-5.564-4.013L75.438 17l2.126-6.494L72 6.494h6.878L81.002 0z" fill="#81B3D2"/></svg>